Coordinates
version=1
nRows=26
nColumns=24
inDegrees=yes

Units are S.I. units (second, meters, Newtons, ...)
Angles are in degrees.

endheader
time	pelvis_tilt	pelvis_list	pelvis_rotation	pelvis_tx	pelvis_ty	pelvis_tz	hip_flexion_r	hip_adduction_r	hip_rotation_r	knee_angle_r	ankle_angle_r	subtalar_angle_r	mtp_angle_r	hip_flexion_l	hip_adduction_l	hip_rotation_l	knee_angle_l	ankle_angle_l	subtalar_angle_l	mtp_angle_l	lumbar_extension	lumbar_bending	lumbar_rotation
      4.85500000	     -0.31707853	      3.79683581	     -0.11915278	      0.84598967	      1.00593967	     -0.25820670	     22.31532555	     -1.15383449	      4.53060259	     -8.16315654	     12.48978498	     -2.05439255	      0.00000000	    -17.30181355	      7.46480452	      3.56839803	     -7.17064710	     16.56691015	     -5.47000796	      0.00000000	    -12.79904478	     -3.44092671	     -9.21816206
      4.86000000	     -0.29861435	      3.69160903	     -0.10134157	      0.85279683	      1.00568828	     -0.25768227	     22.34387970	     -0.98139864	      4.36135216	     -8.97627375	     12.33108788	     -1.72888192	      0.00000000	    -17.25286253	      7.28853624	      3.15409889	     -8.06252838	     16.66280833	     -4.72030005	      0.00000000	    -12.76470793	     -3.30764199	     -9.17768830
      4.86500000	     -0.29443460	      3.55876299	     -0.07360109	      0.85961257	      1.00549416	     -0.25717348	     22.37539292	     -0.79042911	      4.22126192	     -9.76729911	     12.05822438	     -1.47091327	      0.00000000	    -17.15766874	      7.07745626	      2.71655918	     -9.00824696	     16.73660308	     -3.95929446	      0.00000000	    -12.71753423	     -3.13139926	     -9.13007659
      4.87000000	     -0.30458772	      3.38555807	     -0.04031772	      0.86645893	      1.00541923	     -0.25663860	     22.40880659	     -0.56267211	      4.04546009	    -10.51561114	     11.61793191	     -1.30863333	      0.00000000	    -17.03821456	      6.81598689	      2.28010092	     -9.95898381	     16.70856767	     -3.22945230	      0.00000000	    -12.65150387	     -2.91749840	     -9.08358430
      4.87500000	     -0.32698220	      3.19095967	     -0.00040359	      0.87324552	      1.00540420	     -0.25613040	     22.45076836	     -0.32060393	      3.94026153	    -11.23503921	     11.13034548	     -1.25558402	      0.00000000	    -16.85154749	      6.52531109	      1.78129046	    -11.00263401	     16.69746954	     -2.43808771	      0.00000000	    -12.58726907	     -2.66909591	     -9.02010938
      4.88000000	     -0.36853310	      2.96450455	      0.03786676	      0.88005569	      1.00548695	     -0.25562200	     22.50128199	     -0.04649335	      3.85920010	    -11.91221114	     10.56435412	     -1.34235043	      0.00000000	    -16.62925785	      6.19694486	      1.28127164	    -12.06305279	     16.58478059	     -1.69275809	      0.00000000	    -12.49882952	     -2.38749807	     -8.95087324
      4.88500000	     -0.42115281	      2.72149360	      0.08582669	      0.88689679	      1.00568757	     -0.25512209	     22.54824066	      0.24025752	      3.79590751	    -12.55048091	      9.97564356	     -1.54698064	      0.00000000	    -16.37617722	      5.84144416	      0.76946919	    -13.14538277	     16.35778611	     -0.97701670	      0.00000000	    -12.39121644	     -2.09214658	     -8.88782631
      4.89000000	     -0.48176562	      2.47607008	      0.12329836	      0.89368102	      1.00591586	     -0.25464140	     22.60541717	      0.53683083	      3.84497876	    -13.18613082	      9.44414652	     -1.89791672	      0.00000000	    -16.06611093	      5.48012163	      0.21583910	    -14.30865646	     16.12058791	     -0.25657781	      0.00000000	    -12.28964242	     -1.78397441	     -8.80936801
      4.89500000	     -0.54515969	      2.23326470	      0.15943758	      0.90049461	      1.00622883	     -0.25418580	     22.65597783	      0.83219621	      3.92303643	    -13.81367236	      8.97824325	     -2.32398847	      0.00000000	    -15.73023234	      5.11605180	     -0.34210477	    -15.49929484	     15.76009071	      0.39510419	      0.00000000	    -12.17913280	     -1.47637179	     -8.73059553
      4.90000000	     -0.60531199	      2.00588740	      0.20231880	      0.90734282	      1.00660985	     -0.25373971	     22.69205158	      1.11164103	      4.01093970	    -14.43831601	      8.62900677	     -2.77700919	      0.00000000	    -15.36682725	      4.75495783	     -0.91356603	    -16.73495417	     15.28674857	      1.00675904	      0.00000000	    -12.06753280	     -1.18952334	     -8.65493714
      4.90500000	     -0.65521613	      1.80438158	      0.24593944	      0.91423392	      1.00704684	     -0.25331750	     22.70654739	      1.36534191	      4.08552122	    -15.06467712	      8.42206401	     -3.22084920	      0.00000000	    -14.98060641	      4.40991243	     -1.50743043	    -18.01773903	     14.69626074	      1.56948992	      0.00000000	    -11.95856545	     -0.93571981	     -8.57629522
      4.91000000	     -0.71215548	      1.61365009	      0.26022594	      0.92109471	      1.00748698	     -0.25289931	     22.73041009	      1.61968376	      4.21334704	    -15.71220379	      8.32883871	     -3.62684117	      0.00000000	    -14.54379857	      4.07386532	     -2.13808035	    -19.36139125	     14.02796346	      2.08074271	      0.00000000	    -11.85183929	     -0.68052328	     -8.50552025
      4.91500000	     -0.73537563	      1.46411710	      0.29681184	      0.92800698	      1.00801860	     -0.25246929	     22.69820668	      1.82427874	      4.23790012	    -16.34075545	      8.40123077	     -3.94669259	      0.00000000	    -14.10588726	      3.75542369	     -2.77196388	    -20.74738510	     13.19334311	      2.52905830	      0.00000000	    -11.77032701	     -0.48660313	     -8.43159857
      4.92000000	     -0.79904997	      1.30596792	      0.30187702	      0.93494068	      1.00849267	     -0.25201447	     22.69109574	      2.05129975	      4.33251822	    -16.95480607	      8.56042641	     -4.20880213	      0.00000000	    -13.57430280	      3.41783496	     -3.47659867	    -22.21025739	     12.28316957	      2.94404088	      0.00000000	    -11.63929703	     -0.27504159	     -8.36194871
      4.92500000	     -0.82531049	      1.18045134	      0.31648242	      0.94182581	      1.00906720	     -0.25154712	     22.63152990	      2.23716010	      4.31953525	    -17.54328554	      8.80119149	     -4.36697408	      0.00000000	    -13.03443126	      3.08933549	     -4.18193488	    -23.72122346	     11.20119396	      3.30765818	      0.00000000	    -11.56193408	     -0.10899412	     -8.28880951
      4.93000000	     -0.85763871	      1.05367890	      0.32703064	      0.94872431	      1.00963988	     -0.25104329	     22.55013249	      2.42655127	      4.28427924	    -18.08519954	      9.10615717	     -4.48626555	      0.00000000	    -12.44199595	      2.73634244	     -4.92458360	    -25.28542239	      9.98474397	      3.59777531	      0.00000000	    -11.47105895	      0.05247542	     -8.20765320
      4.93500000	     -0.90054953	      0.92798659	      0.33784571	      0.95559510	      1.01021238	     -0.25051012	     22.45249627	      2.61509212	      4.23244639	    -18.57449615	      9.43805400	     -4.58279075	      0.00000000	    -11.79209122	      2.36023158	     -5.68559025	    -26.89546945	      8.61539857	      3.80148375	      0.00000000	    -11.36844217	      0.20807717	     -8.12492727
      4.94000000	     -1.03973507	      0.85326463	      0.35460635	      0.96235900	      1.01065113	     -0.24990003	     22.44012548	      2.75844157	      4.22044974	    -19.02517822	      9.78661905	     -4.70193116	      0.00000000	    -10.98086711	      2.00653628	     -6.44536319	    -28.56625274	      7.09777480	      3.93966168	      0.00000000	    -11.16132463	      0.28672015	     -8.06830064
      4.94500000	     -0.99934398	      0.69789901	      0.41496663	      0.96916027	      1.01137499	     -0.24938130	     22.17718591	      2.95747791	      4.09456501	    -19.36490733	     10.12033757	     -4.80913053	      0.00000000	    -10.34497672	      1.54695351	     -7.15531675	    -30.21853172	      5.38920855	      3.92235403	      0.00000000	    -11.16755650	      0.47103700	     -8.01801858
      4.95000000	     -1.14763691	      0.57651876	      0.41317278	      0.97589135	      1.01181433	     -0.24866609	     22.10379336	      3.15833738	      4.09893222	    -19.67671717	     10.43372974	     -4.95289467	      0.00000000	     -9.46637606	      1.09563163	     -7.94907292	    -31.91204048	      3.55775907	      3.89552713	      0.00000000	    -10.94655051	      0.59137314	     -7.93443325
      4.95500000	     -1.12989873	      0.40277789	      0.48528944	      0.98253740	      1.01251902	     -0.24807722	     21.81064487	      3.37694519	      3.96633598	    -19.89362093	     10.70917067	     -5.10319852	      0.00000000	     -8.73925211	      0.56914178	     -8.62169540	    -33.58796451	      1.55479407	      3.72164018	      0.00000000	    -10.94952103	      0.78736119	     -7.88448144
      4.96000000	     -1.17610182	      0.22065949	      0.54569842	      0.98916765	      1.01312115	     -0.24741064	     21.55407521	      3.61772770	      3.90316432	    -20.05127727	     10.95998974	     -5.30264710	      0.00000000	     -7.92486391	      0.01664048	     -9.28830144	    -35.25760751	     -0.57521833	      3.44234383	      0.00000000	    -10.86641646	      0.97869448	     -7.81507729
      4.96500000	     -1.36912974	      0.08445796	      0.60672729	      0.99561670	      1.01348120	     -0.24663979	     21.44981116	      3.82577658	      3.90756685	    -20.18321535	     11.18577629	     -5.58054464	      0.00000000	     -6.90806428	     -0.50653190	     -9.91774066	    -36.95849685	     -2.78578254	      3.06164637	      0.00000000	    -10.62947664	      1.08919654	     -7.74839852
      4.97000000	     -1.45963005	     -0.11804951	      0.70227874	      1.00209619	      1.01399487	     -0.24595029	     21.19631231	      4.07878031	      3.82415942	    -20.24043469	     11.41711436	     -5.79207056	      0.00000000	     -6.00107001	     -1.10342699	    -10.45826003	    -38.61426569	     -5.07323856	      2.58271762	      0.00000000	    -10.50760499	      1.28877016	     -7.69545982
      4.97500000	     -1.53382535	     -0.33617326	      0.80702684	      1.00856071	      1.01452717	     -0.24526543	     20.89483465	      4.34646587	      3.75017953	    -20.23614905	     11.63176244	     -6.02168414	      0.00000000	     -5.10419752	     -1.71618392	    -10.93060254	    -40.23925872	     -7.40566492	      2.00962976	      0.00000000	    -10.40076539	      1.50259200	     -7.63972031
      4.98000000	     -1.63325210	     -0.55561206	      0.92327877	      1.01488421	      1.01500797	     -0.24459912	     20.61602474	      4.61018367	      3.67379332	    -20.20938753	     11.83330843	     -6.23471296	      0.00000000	     -4.15152668	     -2.32438894	    -11.32563310	    -41.86434770	     -9.73436662	      1.33376758	      0.00000000	    -10.28622485	      1.71212877	     -7.58043888
